<svg version="1.1" viewBox="0.0 0.0 956.6876640419947 598.1968503937007" fill="none" stroke="none" stroke-linecap="square" stroke-miterlimit="10" xmlns:xlink="http://www.w3.org/1999/xlink" xmlns="http://www.w3.org/2000/svg"><clipPath id="p.0"><path d="m0 0l956.6877 0l0 598.19684l-956.6877 0l0 -598.19684z" clip-rule="nonzero"/></clipPath><g clip-path="url(#p.0)"><path fill="#000000" fill-opacity="0.0" d="m0 0l956.6877 0l0 598.19684l-956.6877 0z" fill-rule="evenodd"/><path fill="#660000" fill-opacity="0.5692" d="m149.22572 37.230972l658.2362 0l0 497.60632l-658.2362 0z" fill-rule="evenodd"/><path fill="#000000" d="m672.6984 63.54843l3.043335 0l0 418.5028l-3.043335 0z" fill-rule="evenodd"/><path stroke="#000000" stroke-width="1.0" stroke-linejoin="round" stroke-linecap="butt" d="m672.6984 63.54843l3.043335 0l0 418.5028l-3.043335 0z" fill-rule="evenodd"/><path fill="#f5f5f5" d="m663.19574 229.74242l9.503784 0l0 252.30882l-9.503784 0z" fill-rule="evenodd"/><path fill="#000000" fill-opacity="0.0" d="m635.25385 482.05124l70.18396 0l0 52.78604l-70.18396 0z" fill-rule="evenodd"/><path fill="#f5f5f5" d="m649.42706 492.1299l1.578125 0l0 5.125l5.109375 0l0 -5.125l1.5625 0l0 12.234375l-1.5625 0l0 -5.765625l-5.109375 0l0 5.765625l-1.578125 0l0 -12.234375zm14.537537 1.296875l-4.03125 0l0 -1.296875l9.625 0l0 1.296875l-4.03125 0l0 10.9375l-1.5625 0l0 -10.9375zm7.8968506 -1.296875l1.71875 0l1.734375 5.203125l0.609375 1.96875l0.078125 0l0.59375 -1.96875l1.71875 -5.203125l1.71875 0l0 12.234375l-1.328125 0l0 -6.890625q0 -0.359375 0.015625 -0.859375q0.015625 -0.515625 0.046875 -1.03125q0.03125 -0.515625 0.046875 -1.0q0.03125 -0.5 0.078125 -0.875l-0.0625 0l-0.796875 2.609375l-1.6875 4.71875l-0.828125 0l-1.6875 -4.71875l-0.8125 -2.609375l-0.0625 0q0.015625 0.375 0.046875 0.875q0.046875 0.484375 0.078125 1.0q0.046875 0.515625 0.0625 1.03125q0.015625 0.5 0.015625 0.859375l0 6.890625l-1.296875 0l0 -12.234375zm12.178162 0l1.53125 0l0 10.90625l6.0625 0l0 1.328125l-7.59375 0l0 -12.234375z" fill-rule="nonzero"/><path fill="#f5f5f5" d="m654.7896 520.23926q0 -1.46875 0.390625 -2.640625q0.40625 -1.171875 1.125 -1.984375q0.734375 -0.828125 1.734375 -1.265625q1.015625 -0.453125 2.21875 -0.453125q1.109375 0 1.953125 0.453125q0.84375 0.453125 1.375 1.046875l-0.875 0.984375q-0.484375 -0.5 -1.078125 -0.796875q-0.59375 -0.3125 -1.375 -0.3125q-0.875 0 -1.59375 0.34375q-0.71875 0.34375 -1.234375 0.984375q-0.5 0.640625 -0.78125 1.5625q-0.265625 0.90625 -0.265625 2.046875q0 1.15625 0.265625 2.078125q0.28125 0.921875 0.78125 1.578125q0.515625 0.65625 1.234375 1.015625q0.71875 0.34375 1.59375 0.34375q0.828125 0 1.484375 -0.34375q0.65625 -0.359375 1.25 -1.015625l0.890625 0.953125q-0.71875 0.84375 -1.640625 1.3125q-0.90625 0.453125 -2.078125 0.453125q-1.15625 0 -2.140625 -0.421875q-0.984375 -0.4375 -1.703125 -1.234375q-0.71875 -0.8125 -1.125 -2.0q-0.40625 -1.1875 -0.40625 -2.6875zm12.146851 3.453125q0.6875 0.6875 1.59375 1.109375q0.921875 0.421875 1.921875 0.421875q1.3125 0 2.015625 -0.546875q0.71875 -0.546875 0.71875 -1.453125q0 -0.453125 -0.171875 -0.78125q-0.171875 -0.328125 -0.46875 -0.5625q-0.296875 -0.234375 -0.703125 -0.421875q-0.390625 -0.1875 -0.859375 -0.390625l-1.75 -0.765625q-0.46875 -0.1875 -0.9375 -0.4375q-0.46875 -0.265625 -0.859375 -0.640625q-0.375 -0.375 -0.625 -0.890625q-0.234375 -0.515625 -0.234375 -1.1875q0 -0.6875 0.296875 -1.28125q0.296875 -0.59375 0.828125 -1.03125q0.53125 -0.453125 1.265625 -0.6875q0.75 -0.25 1.625 -0.25q1.15625 0 2.125 0.421875q0.96875 0.421875 1.640625 1.09375l-0.828125 1.015625q-0.59375 -0.546875 -1.3125 -0.84375q-0.71875 -0.3125 -1.625 -0.3125q-1.125 0 -1.78125 0.46875q-0.640625 0.46875 -0.640625 1.3125q0 0.453125 0.1875 0.765625q0.203125 0.296875 0.5 0.53125q0.3125 0.234375 0.703125 0.40625q0.390625 0.171875 0.78125 0.328125l1.71875 0.75q0.5625 0.21875 1.046875 0.515625q0.5 0.28125 0.859375 0.671875q0.375 0.375 0.578125 0.890625q0.21875 0.515625 0.21875 1.1875q0 0.734375 -0.296875 1.375q-0.296875 0.625 -0.859375 1.109375q-0.5625 0.46875 -1.359375 0.734375q-0.796875 0.265625 -1.8125 0.265625q-1.34375 0 -2.46875 -0.484375q-1.125 -0.484375 -1.96875 -1.3125l0.9375 -1.09375zm11.193787 0q0.6875 0.6875 1.59375 1.109375q0.921875 0.421875 1.921875 0.421875q1.3125 0 2.015625 -0.546875q0.71875 -0.546875 0.71875 -1.453125q0 -0.453125 -0.171875 -0.78125q-0.171875 -0.328125 -0.46875 -0.5625q-0.296875 -0.234375 -0.703125 -0.421875q-0.390625 -0.1875 -0.859375 -0.390625l-1.75 -0.765625q-0.46875 -0.1875 -0.9375 -0.4375q-0.46875 -0.265625 -0.859375 -0.640625q-0.375 -0.375 -0.625 -0.890625q-0.234375 -0.515625 -0.234375 -1.1875q0 -0.6875 0.296875 -1.28125q0.296875 -0.59375 0.828125 -1.03125q0.53125 -0.453125 1.265625 -0.6875q0.75 -0.25 1.625 -0.25q1.15625 0 2.125 0.421875q0.96875 0.421875 1.640625 1.09375l-0.828125 1.015625q-0.59375 -0.546875 -1.3125 -0.84375q-0.71875 -0.3125 -1.625 -0.3125q-1.125 0 -1.78125 0.46875q-0.640625 0.46875 -0.640625 1.3125q0 0.453125 0.1875 0.765625q0.203125 0.296875 0.5 0.53125q0.3125 0.234375 0.703125 0.40625q0.390625 0.171875 0.78125 0.328125l1.71875 0.75q0.5625 0.21875 1.046875 0.515625q0.5 0.28125 0.859375 0.671875q0.375 0.375 0.578125 0.890625q0.21875 0.515625 0.21875 1.1875q0 0.734375 -0.296875 1.375q-0.296875 0.625 -0.859375 1.109375q-0.5625 0.46875 -1.359375 0.734375q-0.796875 0.265625 -1.8125 0.265625q-1.34375 0 -2.46875 -0.484375q-1.125 -0.484375 -1.96875 -1.3125l0.9375 -1.09375z" fill-rule="nonzero"/><path fill="#999999" d="m184.27469 63.35981l3.0433502 0l0 418.50284l-3.0433502 0z" fill-rule="evenodd"/><path fill="#000000" fill-opacity="0.0" d="m152.24016 481.86353l67.11391 0l0 38.14679l-67.11391 0z" fill-rule="evenodd"/><path fill="#f5f5f5" d="m166.0971 504.37253q1.078125 1.34375 2.3125 1.34375q0.953125 0 1.421875 -0.46875q0.46875 -0.484375 0.46875 -1.75l0 -5.515625l-4.765625 0l0 -2.28125l7.5 0l0 8.015625q0 0.890625 -0.234375 1.6875q-0.234375 0.796875 -0.78125 1.390625q-0.53125 0.59375 -1.40625 0.9375q-0.859375 0.34375 -2.109375 0.34375q-0.5 0 -1.046875 -0.109375q-0.546875 -0.09375 -1.0625 -0.328125q-0.515625 -0.25 -1.0 -0.625q-0.484375 -0.390625 -0.890625 -0.953125l1.59375 -1.6875zm9.646881 0.90625q0 -0.78125 0.328125 -1.359375q0.34375 -0.59375 1.078125 -1.0q0.734375 -0.421875 1.890625 -0.671875q1.15625 -0.25 2.796875 -0.34375q-0.078125 -0.625 -0.546875 -0.984375q-0.46875 -0.359375 -1.421875 -0.359375q-0.671875 0 -1.359375 0.234375q-0.671875 0.234375 -1.46875 0.625l-0.96875 -1.796875q0.953125 -0.53125 2.046875 -0.890625q1.09375 -0.359375 2.28125 -0.359375q1.953125 0 3.0625 1.03125q1.125 1.03125 1.125 3.15625l0 5.296875l-2.234375 0l-0.21875 -1.046875l-0.0625 0q-0.71875 0.546875 -1.5625 0.90625q-0.828125 0.359375 -1.734375 0.359375q-0.703125 0 -1.265625 -0.21875q-0.5625 -0.203125 -0.953125 -0.578125q-0.390625 -0.390625 -0.609375 -0.890625q-0.203125 -0.515625 -0.203125 -1.109375zm2.625 -0.203125q0 0.453125 0.34375 0.671875q0.34375 0.203125 0.953125 0.203125q0.609375 0 1.140625 -0.25q0.546875 -0.25 1.03125 -0.625l0 -1.53125q-1.015625 0.0625 -1.6875 0.1875q-0.671875 0.125 -1.078125 0.328125q-0.390625 0.203125 -0.546875 0.46875q-0.15625 0.25 -0.15625 0.546875zm8.006256 -6.46875l2.765625 0l1.453125 4.359375q0.21875 0.71875 0.421875 1.421875q0.203125 0.703125 0.421875 1.4375l0.0625 0q0.203125 -0.734375 0.40625 -1.4375q0.203125 -0.703125 0.421875 -1.421875l1.453125 -4.359375l2.625 0l-3.390625 9.25l-3.15625 0l-3.484375 -9.25zm11.756256 6.671875q0 -0.78125 0.328125 -1.359375q0.34375 -0.59375 1.078125 -1.0q0.734375 -0.421875 1.890625 -0.671875q1.15625 -0.25 2.796875 -0.34375q-0.078125 -0.625 -0.546875 -0.984375q-0.46875 -0.359375 -1.421875 -0.359375q-0.671875 0 -1.359375 0.234375q-0.671875 0.234375 -1.46875 0.625l-0.96875 -1.796875q0.953125 -0.53125 2.046875 -0.890625q1.09375 -0.359375 2.28125 -0.359375q1.953125 0 3.0625 1.03125q1.125 1.03125 1.125 3.15625l0 5.296875l-2.234375 0l-0.21875 -1.046875l-0.0625 0q-0.71875 0.546875 -1.5625 0.90625q-0.828125 0.359375 -1.734375 0.359375q-0.703125 0 -1.265625 -0.21875q-0.5625 -0.203125 -0.953125 -0.578125q-0.390625 -0.390625 -0.609375 -0.890625q-0.203125 -0.515625 -0.203125 -1.109375zm2.625 -0.203125q0 0.453125 0.34375 0.671875q0.34375 0.203125 0.953125 0.203125q0.609375 0 1.140625 -0.25q0.546875 -0.25 1.03125 -0.625l0 -1.53125q-1.015625 0.0625 -1.6875 0.1875q-0.671875 0.125 -1.078125 0.328125q-0.390625 0.203125 -0.546875 0.46875q-0.15625 0.25 -0.15625 0.546875z" fill-rule="nonzero"/><path fill="#f5f5f5" d="m179.91655 63.35981l9.503799 0l0 418.50284l-9.503799 0z" fill-rule="evenodd"/><path fill="#000000" d="m291.38217 63.357605l3.0433655 0l0 418.5028l-3.0433655 0z" fill-rule="evenodd"/><path fill="#000000" fill-opacity="0.0" d="m254.0811 481.4501l60.01274 0l0 38.14676l-60.01274 0z" fill-rule="evenodd"/><path fill="#f5f5f5" d="m273.925 501.44348q0 -1.515625 0.4375 -2.703125q0.453125 -1.1875 1.234375 -2.0q0.78125 -0.828125 1.84375 -1.25q1.0625 -0.4375 2.28125 -0.4375q1.171875 0 2.078125 0.484375q0.90625 0.46875 1.515625 1.0625l-1.5 1.703125q-0.4375 -0.390625 -0.9375 -0.625q-0.5 -0.25 -1.15625 -0.25q-0.65625 0 -1.203125 0.265625q-0.53125 0.265625 -0.9375 0.78125q-0.390625 0.5 -0.625 1.234375q-0.21875 0.71875 -0.21875 1.640625q0 1.875 0.859375 2.921875q0.859375 1.03125 2.234375 1.03125q0.65625 0 1.1875 -0.296875q0.53125 -0.3125 0.984375 -0.796875l1.5 1.671875q-1.53125 1.78125 -3.84375 1.78125q-1.171875 0 -2.21875 -0.390625q-1.046875 -0.40625 -1.828125 -1.1875q-0.78125 -0.78125 -1.234375 -1.953125q-0.453125 -1.171875 -0.453125 -2.6875zm12.850006 2.515625l-1.375 0l0 -1.765625l1.578125 0l0.265625 -2.046875l-1.484375 0l0 -1.75l1.703125 0l0.390625 -3.078125l1.5625 0l-0.359375 3.078125l1.9375 0l0.390625 -3.078125l1.5625 0l-0.375 3.078125l1.484375 0l0 1.75l-1.703125 0l-0.25 2.046875l1.578125 0l0 1.765625l-1.78125 0l-0.421875 3.484375l-1.59375 0l0.421875 -3.484375l-1.921875 0l-0.4375 3.484375l-1.578125 0l0.40625 -3.484375zm3.734375 -1.765625l0.25 -2.046875l-1.9375 0l-0.234375 2.046875l1.921875 0z" fill-rule="nonzero"/><path fill="#f5f5f5" d="m281.8784 112.31838l9.503784 0l0 369.1317l-9.503784 0z" fill-rule="evenodd"/><path fill="#000000" fill-opacity="0.0" d="m345.6182 481.44095l83.69217 0l0 38.14676l-83.69217 0z" fill-rule="evenodd"/><path fill="#f5f5f5" d="m360.51114 501.43433q0 -1.515625 0.4375 -2.703125q0.453125 -1.1875 1.234375 -2.0q0.78125 -0.828125 1.84375 -1.25q1.0625 -0.4375 2.28125 -0.4375q1.171875 0 2.078125 0.484375q0.90625 0.46875 1.515625 1.0625l-1.5 1.703125q-0.4375 -0.390625 -0.9375 -0.625q-0.5 -0.25 -1.15625 -0.25q-0.65625 0 -1.203125 0.265625q-0.53125 0.265625 -0.9375 0.78125q-0.390625 0.5 -0.625 1.234375q-0.21875 0.71875 -0.21875 1.640625q0 1.875 0.859375 2.921875q0.859375 1.03125 2.234375 1.03125q0.65625 0 1.1875 -0.296875q0.53125 -0.3125 0.984375 -0.796875l1.5 1.671875q-1.53125 1.78125 -3.84375 1.78125q-1.171875 0 -2.21875 -0.390625q-1.046875 -0.40625 -1.828125 -1.1875q-0.78125 -0.78125 -1.234375 -1.953125q-0.453125 -1.171875 -0.453125 -2.6875zm13.834381 8.984375l-2.296875 0l6.140625 -16.234375l2.296875 0l-6.140625 16.234375zm8.553131 -8.984375q0 -1.515625 0.4375 -2.703125q0.453125 -1.1875 1.234375 -2.0q0.78125 -0.828125 1.84375 -1.25q1.0625 -0.4375 2.28125 -0.4375q1.171875 0 2.078125 0.484375q0.90625 0.46875 1.515625 1.0625l-1.5 1.703125q-0.4375 -0.390625 -0.9375 -0.625q-0.5 -0.25 -1.15625 -0.25q-0.65625 0 -1.203125 0.265625q-0.53125 0.265625 -0.9375 0.78125q-0.390625 0.5 -0.625 1.234375q-0.21875 0.71875 -0.21875 1.640625q0 1.875 0.859375 2.921875q0.859375 1.03125 2.234375 1.03125q0.65625 0 1.1875 -0.296875q0.53125 -0.3125 0.984375 -0.796875l1.5 1.671875q-1.53125 1.78125 -3.84375 1.78125q-1.171875 0 -2.21875 -0.390625q-1.046875 -0.40625 -1.828125 -1.1875q-0.78125 -0.78125 -1.234375 -1.953125q-0.453125 -1.171875 -0.453125 -2.6875zm14.756256 0.8125l-3.28125 0l0 -1.9375l3.28125 0l0 -3.4375l2.015625 0l0 3.4375l3.28125 0l0 1.9375l-3.28125 0l0 3.4375l-2.015625 0l0 -3.4375zm11.193756 0l-3.28125 0l0 -1.9375l3.28125 0l0 -3.4375l2.015625 0l0 3.4375l3.28125 0l0 1.9375l-3.28125 0l0 3.4375l-2.015625 0l0 -3.4375z" fill-rule="nonzero"/><path fill="#000000" d="m388.58545 63.357605l3.043335 0l0 418.5028l-3.043335 0z" fill-rule="evenodd"/><path stroke="#000000" stroke-width="1.0" stroke-linejoin="round" stroke-linecap="butt" d="m388.58545 63.357605l3.043335 0l0 418.5028l-3.043335 0z" fill-rule="evenodd"/><path fill="#f5f5f5" d="m379.08163 182.38211l9.503815 0l0 299.05917l-9.503815 0z" fill-rule="evenodd"/><path fill="#000000" fill-opacity="0.0" d="m460.83475 481.4501l70.18393 0l0 38.14676l-70.18393 0z" fill-rule="evenodd"/><path fill="#f5f5f5" d="m481.6517 504.0216q0.6875 0.5625 1.5 0.921875q0.8125 0.359375 1.625 0.359375q0.9375 0 1.375 -0.3125q0.453125 -0.328125 0.453125 -0.875q0 -0.265625 -0.140625 -0.46875q-0.125 -0.21875 -0.375 -0.375q-0.234375 -0.15625 -0.578125 -0.296875q-0.34375 -0.140625 -0.796875 -0.3125l-1.5625 -0.671875q-0.515625 -0.1875 -0.984375 -0.484375q-0.46875 -0.296875 -0.828125 -0.6875q-0.359375 -0.40625 -0.578125 -0.9375q-0.203125 -0.53125 -0.203125 -1.203125q0 -0.75 0.328125 -1.40625q0.328125 -0.671875 0.90625 -1.15625q0.59375 -0.5 1.40625 -0.78125q0.828125 -0.28125 1.8125 -0.28125q1.125 0 2.15625 0.421875q1.046875 0.40625 1.890625 1.1875l-1.390625 1.734375q-0.640625 -0.46875 -1.265625 -0.71875q-0.609375 -0.25 -1.390625 -0.25q-0.796875 0 -1.234375 0.296875q-0.4375 0.28125 -0.4375 0.796875q0 0.5625 0.546875 0.84375q0.5625 0.28125 1.4375 0.59375l1.484375 0.640625q1.203125 0.4375 1.90625 1.234375q0.703125 0.78125 0.703125 2.0625q0 0.765625 -0.328125 1.453125q-0.3125 0.671875 -0.90625 1.1875q-0.59375 0.515625 -1.46875 0.828125q-0.875 0.296875 -2.015625 0.296875q-1.234375 0 -2.4375 -0.4375q-1.203125 -0.4375 -2.1875 -1.3125l1.578125 -1.890625zm14.225006 -6.59375q-0.96875 0 -1.515625 1.03125q-0.546875 1.015625 -0.546875 2.84375q0 1.84375 0.546875 2.921875q0.546875 1.078125 1.515625 1.078125q0.953125 0 1.5 -1.078125q0.546875 -1.078125 0.546875 -2.921875q0 -1.828125 -0.546875 -2.84375q-0.546875 -1.03125 -1.5 -1.03125zm5.28125 12.9375q-0.328125 0.171875 -0.78125 0.28125q-0.4375 0.125 -1.015625 0.125q-0.890625 0 -1.640625 -0.25q-0.75 -0.25 -1.359375 -0.671875q-0.609375 -0.421875 -1.0625 -1.03125q-0.4375 -0.609375 -0.71875 -1.3125q-1.640625 -0.46875 -2.609375 -2.0625q-0.96875 -1.59375 -0.96875 -4.140625q0 -1.484375 0.34375 -2.65625q0.359375 -1.171875 1.0 -1.953125q0.640625 -0.796875 1.53125 -1.21875q0.890625 -0.421875 2.0 -0.421875q1.078125 0 1.96875 0.421875q0.890625 0.421875 1.53125 1.234375q0.640625 0.796875 0.984375 1.96875q0.359375 1.15625 0.359375 2.625q0 2.40625 -0.875 3.984375q-0.875 1.578125 -2.390625 2.125q0.3125 0.640625 0.9375 0.890625q0.625 0.265625 1.28125 0.265625q0.28125 0 0.53125 -0.078125q0.25 -0.078125 0.453125 -0.171875l0.5 2.046875zm2.365631 -15.078125l2.734375 0l0 9.84375l5.421875 0l0 2.3125l-8.15625 0l0 -12.15625z" fill-rule="nonzero"/><path fill="#000000" d="m499.15695 63.357605l3.043335 0l0 418.5028l-3.043335 0z" fill-rule="evenodd"/><path stroke="#000000" stroke-width="1.0" stroke-linejoin="round" stroke-linecap="butt" d="m499.15695 63.357605l3.043335 0l0 418.5028l-3.043335 0z" fill-rule="evenodd"/><path fill="#f5f5f5" d="m489.65314 112.31838l9.503815 0l0 369.1317l-9.503815 0z" fill-rule="evenodd"/><path fill="#000000" d="m770.7453 63.54402l3.043335 0l0 418.5028l-3.043335 0z" fill-rule="evenodd"/><path stroke="#000000" stroke-width="1.0" stroke-linejoin="round" stroke-linecap="butt" d="m770.7453 63.54402l3.043335 0l0 418.5028l-3.043335 0z" fill-rule="evenodd"/><path fill="#000000" fill-opacity="0.0" d="m730.71454 481.64093l70.18396 0l0 38.14679l-70.18396 0z" fill-rule="evenodd"/><path fill="#f5f5f5" d="m757.12836 504.8843q0.546875 0.828125 1.21875 1.21875q0.671875 0.390625 1.375 0.390625q1.328125 0 1.9375 -0.6875q0.609375 -0.703125 0.609375 -2.21875l0 -6.90625l-5.140625 0l0 -1.296875l6.6875 0l0 8.328125q0 0.859375 -0.21875 1.625q-0.203125 0.75 -0.6875 1.3125q-0.46875 0.5625 -1.25 0.890625q-0.765625 0.3125 -1.890625 0.3125q-1.046875 0 -2.03125 -0.484375q-0.984375 -0.484375 -1.609375 -1.546875l1.0 -0.9375zm10.865662 0.078125q0.6875 0.6875 1.59375 1.109375q0.921875 0.421875 1.921875 0.421875q1.3125 0 2.015625 -0.546875q0.71875 -0.546875 0.71875 -1.453125q0 -0.453125 -0.171875 -0.78125q-0.171875 -0.328125 -0.46875 -0.5625q-0.296875 -0.234375 -0.703125 -0.421875q-0.390625 -0.1875 -0.859375 -0.390625l-1.75 -0.765625q-0.46875 -0.1875 -0.9375 -0.4375q-0.46875 -0.265625 -0.859375 -0.640625q-0.375 -0.375 -0.625 -0.890625q-0.234375 -0.515625 -0.234375 -1.1875q0 -0.6875 0.296875 -1.28125q0.296875 -0.59375 0.828125 -1.03125q0.53125 -0.453125 1.265625 -0.6875q0.75 -0.25 1.625 -0.25q1.15625 0 2.125 0.421875q0.96875 0.421875 1.640625 1.09375l-0.828125 1.015625q-0.59375 -0.546875 -1.3125 -0.84375q-0.71875 -0.3125 -1.625 -0.3125q-1.125 0 -1.78125 0.46875q-0.640625 0.46875 -0.640625 1.3125q0 0.453125 0.1875 0.765625q0.203125 0.296875 0.5 0.53125q0.3125 0.234375 0.703125 0.40625q0.390625 0.171875 0.78125 0.328125l1.71875 0.75q0.5625 0.21875 1.046875 0.515625q0.5 0.28125 0.859375 0.671875q0.375 0.375 0.578125 0.890625q0.21875 0.515625 0.21875 1.1875q0 0.734375 -0.296875 1.375q-0.296875 0.625 -0.859375 1.109375q-0.5625 0.46875 -1.359375 0.734375q-0.796875 0.265625 -1.8125 0.265625q-1.34375 0 -2.46875 -0.484375q-1.125 -0.484375 -1.96875 -1.3125l0.9375 -1.09375z" fill-rule="nonzero"/><path fill="#f5f5f5" d="m761.2415 281.924l9.503784 0l0 200.13165l-9.503784 0z" fill-rule="evenodd"/></g></svg>